<?xml version="1.0" standalone="no"?>
<!DOCTYPE svg PUBLIC "-//W3C//DTD SVG 20010904//EN"
 "http://www.w3.org/TR/2001/REC-SVG-20010904/DTD/svg10.dtd">
<svg version="1.0" xmlns="http://www.w3.org/2000/svg"
 width="400.000000pt" height="170.000000pt" viewBox="0 0 400.000000 170.000000"
 preserveAspectRatio="xMidYMid meet">

<g transform="translate(0.000000,170.000000) scale(0.100000,-0.100000)"
fill="#000000" stroke="none">
<path d="M236 1371 c-3 -5 -6 -188 -7 -407 -2 -501 -2 -524 -11 -524 -5 0 -8
-8 -8 -18 0 -9 -14 -35 -32 -56 -17 -21 -27 -41 -22 -44 5 -4 10 -14 12 -22 1
-10 -2 -9 -13 4 -14 19 -15 19 -35 1 -16 -14 -18 -21 -8 -28 9 -6 5 -7 -10 -4
-23 5 -23 5 -6 -14 19 -21 50 -27 38 -6 -6 8 -3 8 9 -1 9 -8 21 -11 26 -8 5 4
12 2 16 -4 9 -14 18 -13 41 6 10 8 14 13 7 10 -13 -7 -12 19 2 31 4 4 5 2 1
-5 -5 -8 0 -11 15 -9 13 2 25 10 27 17 3 7 0 10 -6 6 -6 -3 -13 -2 -16 3 -4 5
5 8 18 7 19 -2 29 6 47 38 21 38 21 40 2 23 -16 -14 -20 -14 -20 -3 0 8 5 14
11 13 6 -1 10 3 9 10 -2 7 3 10 11 7 18 -7 29 36 13 55 -9 12 -9 13 1 7 6 -4
12 -2 12 3 0 6 -4 11 -8 11 -5 0 -9 7 -9 15 0 11 4 12 13 4 10 -8 13 -6 11 10
0 11 -6 17 -12 13 -5 -3 -4 1 2 9 10 12 13 119 13 436 0 362 -2 420 -15 420
-12 0 -12 -3 -3 -16 9 -12 7 -11 -8 2 -22 18 -98 24 -108 8z m104 -851 c0 -5
-2 -10 -4 -10 -3 0 -8 5 -11 10 -3 6 -1 10 4 10 6 0 11 -4 11 -10z m-110 -114
c0 -2 -8 -10 -17 -17 -16 -13 -17 -12 -4 4 13 16 21 21 21 13z m38 -25 c2 -1
-1 -9 -7 -18 -6 -12 -5 -21 7 -31 15 -11 14 -12 -5 -2 -15 7 -20 16 -16 28 6
15 4 15 -9 4 -14 -11 -16 -10 -13 5 2 10 4 19 4 20 1 1 26 -3 39 -6z m-77 -58
c13 -16 12 -17 -3 -4 -17 13 -22 21 -14 21 2 0 10 -8 17 -17z m21 -30 c-6 -2
-9 -10 -6 -15 4 -7 2 -8 -5 -4 -13 9 -5 26 12 25 9 0 8 -2 -1 -6z"/>
<path d="M2735 1375 c-5 -2 -22 -6 -37 -9 -38 -9 -95 -61 -120 -109 -17 -33
-178 -752 -178 -794 0 -9 22 -13 79 -13 l78 0 23 108 c12 59 30 143 39 187
l18 80 247 5 247 5 -51 73 -51 72 -179 0 -180 0 5 23 c3 12 12 56 20 97 13 60
32 110 48 122 1 1 114 4 251 7 l250 6 12 55 c23 99 49 90 -248 89 -145 0 -267
-2 -273 -4z"/>
<path d="M730 1142 c-8 -3 -21 -12 -28 -21 -11 -14 -11 -14 -6 1 4 13 0 16
-18 13 -103 -16 -100 -15 -104 -41 -2 -11 4 -13 19 -9 19 5 20 5 4 -5 -9 -6
-15 -15 -12 -20 3 -5 -4 -7 -15 -5 -31 6 -53 -5 -40 -20 5 -6 6 -16 2 -21 -4
-5 2 -1 14 9 11 9 25 17 30 17 5 0 2 -5 -6 -11 -12 -9 -11 -10 5 -4 11 4 27 8
35 10 8 2 17 4 20 5 3 0 -4 8 -15 17 -19 15 -19 15 -1 9 11 -4 23 -1 29 6 6 9
7 6 4 -9 -4 -19 -1 -23 17 -23 12 0 27 5 34 12 9 9 21 8 53 -1 22 -7 43 -10
46 -7 3 3 17 -4 31 -14 29 -23 50 -27 32 -5 -7 8 -16 13 -20 10 -4 -3 -13 2
-20 10 -7 8 -16 13 -20 10 -5 -3 -12 -1 -15 5 -4 6 -1 9 7 8 7 -2 12 3 10 10
-1 8 2 11 9 6 9 -5 10 -2 6 10 -4 9 -3 14 2 11 5 -3 12 -1 16 5 3 5 1 10 -5
10 -6 0 -9 4 -6 8 3 5 0 9 -7 10 -7 1 -25 3 -42 5 -16 2 -37 2 -45 -1z m70
-28 c0 -8 -19 -13 -24 -6 -3 5 1 9 9 9 8 0 15 -2 15 -3z m-84 -19 c-1 -8 -5
-17 -8 -21 -5 -4 -4 16 1 34 3 9 9 -1 7 -13z m-30 -7 c3 -4 -1 -5 -10 -4 -8 1
-18 5 -22 8 -3 4 1 5 10 4 8 -1 18 -5 22 -8z m81 -2 c4 -4 1 -6 -7 -4 -9 2
-14 -3 -12 -12 2 -8 0 -11 -4 -7 -14 13 -12 35 2 33 7 -1 17 -6 21 -10z"/>
<path d="M2030 1140 c0 -4 7 -11 16 -14 9 -4 14 -9 11 -12 -3 -3 -17 2 -32 12
-22 15 -30 15 -47 5 -11 -7 -17 -8 -13 -2 3 6 -1 11 -10 11 -12 0 -14 -4 -6
-19 10 -18 6 -31 -11 -31 -5 0 -8 8 -6 18 3 17 -10 19 -52 7 -8 -2 -19 -4 -23
-4 -5 -1 -5 -6 -1 -13 4 -7 3 -8 -5 -4 -14 9 -51 -2 -51 -15 0 -5 11 -7 25 -5
14 3 23 1 20 -5 -12 -19 7 -8 32 19 17 17 24 21 20 10 -4 -10 -2 -18 3 -18 6
0 2 -8 -7 -18 -10 -10 -20 -16 -23 -13 -7 8 -47 7 -56 -1 -4 -4 -1 -14 5 -22
10 -12 19 -12 44 -4 18 6 37 15 43 19 6 5 20 7 32 4 12 -2 24 0 27 5 3 4 14 6
25 3 12 -3 20 0 20 6 0 7 -5 9 -12 5 -7 -4 -4 2 6 14 24 28 26 28 20 -4 -4
-22 -3 -23 10 -12 7 7 12 16 10 20 -7 11 39 0 50 -13 8 -9 6 -9 -9 -1 -15 7
-24 6 -35 -6 -13 -14 -12 -15 2 -10 8 4 25 0 37 -8 17 -12 21 -12 19 -2 -2 8
5 12 19 11 17 -2 21 2 18 22 -1 13 2 22 7 19 5 -3 7 -13 4 -21 -5 -11 -2 -14
11 -9 15 5 15 3 -2 -9 -11 -9 -25 -13 -32 -11 -7 3 -13 -1 -13 -9 0 -13 10
-19 30 -17 3 0 7 -35 9 -79 l2 -79 -46 0 c-26 0 -44 -4 -40 -9 3 -5 1 -12 -5
-16 -6 -4 -7 -11 -4 -17 4 -7 2 -8 -5 -4 -9 6 -9 11 -1 21 11 13 -2 30 -14 18
-5 -6 -45 -12 -91 -13 -16 -1 -17 -3 -5 -10 8 -5 17 -7 21 -4 5 2 6 -5 4 -16
-2 -13 1 -20 11 -20 8 0 14 -5 14 -12 0 -6 -3 -8 -7 -5 -3 4 -13 1 -21 -6 -11
-8 -14 -8 -9 0 10 16 -36 68 -52 59 -6 -4 -9 -12 -6 -17 6 -9 -8 -13 -34 -9
-7 1 -28 -13 -46 -32 -32 -31 -33 -34 -17 -53 9 -11 13 -17 8 -13 -5 4 -16 2
-25 -5 -14 -11 -14 -10 -2 6 7 9 9 17 3 17 -12 0 -24 -29 -17 -40 3 -5 11 -8
18 -6 7 1 9 1 4 -1 -4 -3 -5 -8 -2 -13 3 -4 -3 -7 -13 -6 -12 1 -18 -8 -20
-31 -2 -18 1 -33 7 -33 6 0 8 8 5 18 -5 16 -5 16 6 0 12 -20 36 -25 24 -6 -5
7 -3 8 6 3 10 -6 9 -11 -5 -21 -10 -7 -22 -11 -26 -8 -15 9 -10 -20 9 -47 41
-62 86 -85 174 -88 64 -3 80 3 71 25 -4 12 -8 12 -22 2 -14 -12 -15 -11 -2 5
14 18 15 18 30 -1 14 -17 20 -18 44 -8 15 7 25 15 22 18 -3 3 1 8 10 12 11 4
14 2 9 -7 -4 -6 1 -5 12 4 26 22 68 44 60 31 -3 -6 -2 -22 4 -37 7 -17 7 -24
0 -20 -6 3 -10 1 -10 -4 0 -15 63 -14 79 2 11 10 13 10 7 0 -4 -7 -3 -13 2
-13 20 0 23 38 22 277 -1 220 -6 264 -25 233 -11 -18 -25 -10 -21 13 3 12 5
26 5 31 1 4 8 5 17 2 10 -4 14 -1 11 6 -2 7 -11 12 -20 12 -9 -1 -15 2 -12 6
3 4 -1 13 -9 19 -11 9 -15 8 -20 -5 -5 -12 -9 -14 -20 -5 -7 6 -15 8 -19 5 -3
-3 -3 4 0 15 7 27 22 36 29 18 5 -15 27 -17 39 -5 7 6 -39 41 -66 51 -9 3 -22
0 -28 -6 -10 -9 -12 -9 -9 2 2 7 -3 16 -11 19 -10 3 -11 0 -5 -9 6 -11 5 -12
-7 -3 -8 6 -21 12 -29 12 -8 1 -27 3 -42 6 -16 2 -28 1 -28 -4z m48 -25 c-3
-3 -9 2 -12 12 -6 14 -5 15 5 6 7 -7 10 -15 7 -18z m-86 -27 c-7 -7 -12 -8
-12 -2 0 14 12 26 19 19 2 -3 -1 -11 -7 -17z m117 -1 c0 -9 -2 -8 -6 1 -2 6
-10 9 -15 6 -7 -4 -8 -2 -4 5 9 13 26 5 25 -12z m-159 -11 c0 -2 -7 -7 -16
-10 -8 -3 -12 -2 -9 4 6 10 25 14 25 6z m70 -247 c0 -5 4 -7 10 -4 6 4 7 -1 3
-11 -5 -13 -3 -15 8 -9 11 6 12 5 2 -6 -10 -10 -16 -10 -25 -1 -7 7 -8 12 -4
12 5 0 3 7 -4 15 -9 10 -9 15 -1 15 6 0 11 -5 11 -11z m-90 -19 c0 -5 -2 -10
-4 -10 -3 0 -8 5 -11 10 -3 6 -1 10 4 10 6 0 11 -4 11 -10z m178 -39 l52 -1 0
-88 0 -88 -32 -19 c-48 -29 -65 -35 -114 -37 -24 0 -42 -3 -39 -6 2 -2 -2 -17
-10 -32 -8 -15 -11 -31 -7 -36 4 -5 -1 -2 -10 5 -20 15 -24 26 -6 15 8 -5 9
-2 5 10 -4 10 -3 15 3 11 6 -3 10 -1 10 4 0 18 -5 26 -12 24 -5 -2 -8 3 -8 10
0 6 -15 26 -33 42 -18 17 -24 23 -13 15 20 -15 20 -15 2 14 -10 16 -13 25 -7
22 16 -10 13 1 -6 23 -9 11 -21 17 -27 14 -6 -4 -5 0 1 9 7 8 9 19 5 24 -4 4
1 2 10 -5 10 -7 17 -16 16 -19 -3 -25 5 -21 22 12 10 22 17 42 15 47 -3 4 0
11 6 15 8 4 9 3 5 -4 -10 -16 3 -14 44 7 19 10 44 17 55 15 11 -1 44 -3 73 -3z
m-268 -101 c6 -11 8 -20 6 -20 -3 0 -10 9 -16 20 -6 11 -8 20 -6 20 3 0 10 -9
16 -20z m-3 -55 c0 -8 -4 -12 -9 -9 -5 3 -6 10 -3 15 9 13 12 11 12 -6z m0
-40 c0 -8 -4 -12 -9 -9 -5 3 -6 10 -3 15 9 13 12 11 12 -6z m73 -10 c0 -2 -6
-5 -13 -8 -8 -3 -14 1 -14 8 0 7 6 11 14 8 7 -3 13 -6 13 -8z m-90 -43 c0 -15
2 -15 10 -2 6 9 10 10 10 3 0 -22 -21 -25 -27 -4 -3 11 -10 18 -16 14 -6 -3
-7 -1 -3 6 10 15 26 4 26 -17z m337 5 c-2 -6 -14 -11 -27 -12 -20 -2 -21 0 -7
10 9 7 14 15 10 19 -4 4 1 4 10 0 10 -3 16 -11 14 -17z m-75 6 c-6 -2 -10 -8
-8 -12 3 -4 -1 -8 -9 -8 -11 0 -12 4 -4 14 6 7 17 13 23 12 7 0 6 -2 -2 -6z
m158 -22 c0 -3 -5 -13 -10 -21 -8 -13 -10 -12 -10 3 0 11 -4 15 -12 11 -6 -4
-8 -3 -5 3 7 10 37 14 37 4z m-239 -15 c14 8 11 -2 -4 -14 -10 -8 -13 -6 -14
11 0 12 1 16 4 9 3 -6 9 -10 14 -6z m64 -15 c3 -5 2 -12 -3 -15 -5 -3 -9 1 -9
9 0 17 3 19 12 6z"/>
<path d="M849 1135 c-1 -3 -2 -8 -3 -12 -1 -5 -5 -14 -9 -20 -5 -9 -3 -13 7
-13 9 0 16 -7 16 -16 0 -8 4 -13 8 -10 5 3 9 -1 9 -8 0 -8 -6 -12 -14 -9 -7 3
-13 11 -13 19 0 15 -26 19 -34 5 -3 -5 1 -14 9 -21 8 -7 15 -9 15 -5 0 5 9 0
20 -10 12 -11 17 -22 11 -29 -5 -6 -5 -20 0 -31 4 -11 8 -41 8 -66 1 -39 -2
-48 -20 -52 -12 -3 -18 -10 -14 -16 3 -6 10 -9 15 -6 4 3 11 -2 14 -10 5 -13
2 -14 -15 -5 -11 6 -23 18 -26 26 -3 8 -9 14 -15 14 -5 0 -6 -5 -2 -11 4 -8 0
-8 -15 0 -12 7 -26 9 -33 5 -6 -4 -19 -7 -29 -8 -11 -1 -18 -5 -17 -11 2 -5 7
-9 13 -7 5 2 1 -6 -9 -17 -10 -11 -25 -17 -33 -14 -11 4 -12 8 -2 14 20 12 21
42 1 34 -9 -4 -28 -9 -42 -12 -14 -2 -33 -12 -43 -21 -11 -9 -22 -17 -26 -17
-3 0 -5 -5 -5 -11 1 -6 -5 -11 -12 -11 -7 0 -10 5 -7 11 4 6 -4 2 -17 -9 -12
-11 -28 -33 -35 -50 -11 -25 -11 -31 4 -41 14 -11 14 -12 -4 -11 -17 2 -20 -5
-22 -47 -1 -27 2 -55 8 -62 5 -6 9 -16 7 -20 -6 -20 24 -56 43 -51 10 3 18 2
17 -2 -2 -22 4 -32 18 -27 10 4 13 2 8 -6 -5 -7 0 -9 14 -6 12 4 20 2 17 -2
-3 -4 31 -7 76 -6 57 2 83 6 90 17 5 8 9 10 9 5 0 -5 9 -1 20 9 11 10 20 14
20 10 0 -4 9 0 20 10 11 10 34 19 52 21 30 4 31 3 12 -12 -10 -8 -13 -13 -6
-9 6 3 12 1 12 -4 0 -6 -4 -11 -10 -11 -5 0 -7 -6 -4 -14 6 -15 21 -16 43 -2
10 6 12 5 7 -3 -5 -8 2 -11 23 -9 l30 2 0 275 c0 293 -3 315 -51 358 -12 10
-18 13 -15 7 4 -7 0 -15 -8 -18 -8 -3 -14 -9 -13 -13 3 -9 -5 -13 -24 -13 -10
0 -10 2 0 9 8 4 14 12 14 17 0 5 4 8 9 7 5 -2 9 0 9 5 -1 28 -50 48 -57 22 -4
-12 -3 -12 5 -2 8 11 10 11 15 -1 4 -10 0 -14 -11 -12 -10 1 -17 11 -16 24 0
18 -13 31 -17 16z m121 -78 c0 -7 -4 -6 -10 3 -8 12 -10 12 -10 1 0 -8 -3 -12
-6 -8 -9 9 6 28 17 22 5 -4 9 -12 9 -18z m25 -87 c0 -7 -7 -14 -15 -15 -9 -2
-16 5 -16 15 0 10 7 17 16 15 8 -1 15 -8 15 -15z m-320 -149 c-9 -8 -36 -10
-30 -2 2 4 11 8 20 8 8 0 13 -3 10 -6z m112 -6 c4 -4 2 -5 -5 0 -10 5 -13 1
-10 -16 2 -16 11 -25 27 -27 16 -3 21 0 16 9 -6 8 -4 10 6 3 8 -4 22 -10 33
-11 16 -3 17 -1 6 12 -7 9 -10 18 -7 21 3 3 11 -4 17 -16 16 -30 11 -220 -7
-227 -20 -8 -5 -22 17 -18 12 2 18 0 15 -5 -7 -12 -31 -6 -53 13 -16 15 -20
15 -40 1 -12 -8 -20 -19 -17 -24 3 -4 1 -19 -4 -32 -6 -12 -10 -17 -10 -10 -1
7 -6 10 -12 6 -7 -4 -10 -1 -7 7 3 8 11 13 18 11 6 -1 10 3 8 10 -6 16 -78 20
-96 5 -13 -11 -27 -3 -27 16 -1 7 -7 11 -14 9 -7 -1 -10 1 -7 6 3 5 -2 18 -10
28 -9 10 -12 13 -8 5 5 -10 3 -12 -5 -7 -9 6 -9 11 0 23 11 12 10 14 -5 11
-12 -2 -20 4 -21 15 -2 9 1 15 6 11 5 -3 6 -11 3 -17 -4 -7 -3 -8 2 -4 5 5 8
10 7 13 -1 2 4 19 12 37 10 24 11 37 4 44 -8 8 -7 13 2 18 8 6 10 4 4 -6 -5
-9 -2 -8 10 2 13 13 15 21 6 37 -15 28 -14 35 3 20 8 -7 14 -15 14 -18 -1 -22
4 -29 18 -23 8 3 13 11 11 18 -3 6 1 12 9 12 7 0 11 -3 9 -7 -2 -3 11 -4 30
-2 31 4 33 6 25 32 -6 21 -5 27 6 26 7 -1 17 -6 21 -11z m47 -6 c-3 -5 -10 -7
-15 -3 -5 3 -7 10 -3 15 3 5 10 7 15 3 5 -3 7 -10 3 -15z m-217 -29 c-3 -11
-1 -20 4 -20 5 0 1 -8 -8 -18 -10 -10 -20 -15 -23 -11 -3 3 -14 3 -25 -2 -11
-4 -14 -8 -7 -8 7 -1 10 -6 6 -12 -5 -8 -9 -8 -14 1 -11 18 -5 43 11 48 11 3
11 1 -1 -7 -10 -7 -11 -11 -2 -11 14 0 52 36 52 50 0 6 3 10 6 10 4 0 4 -9 1
-20z m-57 -125 c0 -5 -5 -3 -10 5 -8 12 -10 12 -10 1 0 -8 -2 -12 -5 -9 -3 3
-2 13 1 22 5 14 9 15 15 4 5 -7 9 -17 9 -23z m41 12 c-10 -9 -11 -8 -5 6 3 10
9 15 12 12 3 -3 0 -11 -7 -18z m-62 -49 c26 -29 21 -58 -7 -36 -13 11 -15 10
-9 -4 8 -23 4 -23 -18 2 -18 20 -18 21 0 14 14 -6 16 -4 10 6 -9 15 -14 64 -5
52 3 -4 16 -19 29 -34z m75 -56 c2 -4 -5 -9 -17 -9 -17 -2 -19 0 -7 7 18 12
18 12 24 2z m331 -21 c-9 -8 -36 -10 -30 -2 2 4 11 8 20 8 8 0 13 -3 10 -6z
m-111 -37 c3 -8 2 -12 -3 -9 -5 3 -12 1 -16 -5 -8 -13 -25 -13 -25 1 0 5 5 7
10 4 6 -3 13 1 16 9 8 20 10 20 18 0z m-174 -34 c0 -5 -8 -10 -17 -10 -15 0
-16 2 -3 10 19 12 20 12 20 0z m99 -3 c14 4 14 3 0 -6 -8 -5 -26 -7 -38 -4
-17 4 -19 8 -9 14 7 4 17 4 22 -1 4 -4 16 -6 25 -3z"/>
<path d="M847 576 c-4 -10 -1 -13 8 -9 8 3 12 9 9 14 -7 12 -11 11 -17 -5z"/>
<path d="M590 749 c0 -5 5 -7 10 -4 6 3 10 8 10 11 0 2 -4 4 -10 4 -5 0 -10
-5 -10 -11z"/>
<path d="M525 600 c10 -11 20 -18 23 -15 7 6 -18 35 -31 35 -5 0 -2 -9 8 -20z"/>
<path d="M1110 1115 c0 -9 4 -13 10 -10 5 3 7 0 4 -9 -9 -25 5 -39 24 -24 14
11 14 9 0 -8 -10 -11 -18 -25 -18 -30 0 -5 5 -2 11 6 8 12 10 10 5 -9 -6 -30
11 -64 27 -54 7 4 7 0 -2 -10 -11 -14 -11 -23 -1 -47 7 -18 17 -27 24 -23 6 4
6 0 -2 -9 -10 -13 -10 -18 1 -30 8 -7 13 -21 11 -31 -1 -9 2 -19 7 -23 5 -3 7
-10 4 -15 -4 -5 -3 -15 2 -21 4 -7 8 -15 9 -18 3 -18 17 -67 21 -80 4 -8 7
-18 7 -22 1 -3 5 -10 10 -15 5 -5 6 -3 2 5 -4 6 -2 12 3 12 14 0 14 -17 1 -25
-6 -3 0 -32 15 -71 13 -35 24 -66 25 -69 0 -3 0 -12 0 -21 0 -22 32 -13 36 9
1 11 5 22 9 25 3 4 4 -6 1 -21 l-5 -28 69 2 c62 2 69 4 79 26 9 19 9 24 -1 20
-7 -2 -12 -10 -10 -16 1 -7 -3 -9 -9 -6 -8 5 -8 10 0 18 14 14 14 30 1 22 -5
-3 -10 -1 -10 5 0 6 -5 8 -12 4 -8 -5 -8 -1 1 10 14 17 16 16 32 -5 l17 -22
12 23 c10 18 10 21 -2 14 -7 -4 -4 3 7 16 11 13 15 21 9 17 -6 -3 -11 0 -11 8
0 8 4 12 8 9 11 -6 37 47 34 69 -2 9 1 17 6 17 6 0 7 5 4 10 -4 6 -11 7 -17 4
-6 -4 -6 2 1 15 13 24 23 28 15 6 -4 -8 -2 -15 2 -15 12 0 47 108 39 120 -3 6
-1 10 6 10 7 0 5 9 -7 22 -12 14 -13 18 -3 10 16 -12 29 -7 29 10 0 5 -6 6
-12 2 -8 -5 -7 0 2 11 13 17 13 18 0 11 -8 -4 -7 -1 4 8 10 8 19 27 21 43 1
15 6 36 10 45 4 9 4 21 1 27 -3 5 -2 11 4 13 5 1 11 23 12 48 l3 45 -66 3
c-48 2 -66 -1 -67 -10 -1 -7 -3 -31 -6 -53 -2 -22 -5 -41 -6 -42 -2 -2 -3 -11
-5 -20 -1 -10 -5 -25 -8 -33 -3 -8 -8 -28 -10 -45 -2 -16 -7 -38 -12 -48 -4
-10 -2 -23 5 -32 11 -13 10 -14 -3 -9 -12 4 -15 1 -12 -15 2 -11 -1 -23 -6
-27 -6 -4 -3 -14 8 -27 14 -17 14 -19 1 -9 -11 9 -18 10 -23 2 -3 -5 -4 -10 0
-10 3 0 1 -10 -6 -21 -6 -12 -7 -19 -1 -15 16 9 42 -27 32 -44 -7 -11 -10 -11
-11 -2 -1 6 -2 17 -3 22 -3 24 -31 11 -41 -19 -5 -18 -4 -22 6 -17 8 4 6 1 -4
-7 -11 -10 -16 -24 -13 -40 4 -21 1 -24 -17 -19 -20 5 -21 4 -7 -13 8 -10 10
-16 3 -12 -6 4 -14 3 -18 -3 -4 -6 -11 -8 -16 -4 -6 4 -6 11 2 20 6 8 8 14 5
14 -4 0 -2 9 4 19 7 14 6 21 -3 24 -9 4 -9 6 1 6 7 1 11 5 7 11 -3 5 -12 7
-20 3 -8 -3 -15 0 -15 7 0 6 4 9 9 5 5 -3 12 -1 15 3 7 12 -34 156 -45 160 -5
2 -7 7 -4 12 3 5 1 19 -4 32 -5 12 -9 28 -11 33 -1 6 -9 18 -17 27 -9 10 -17
33 -19 50 -6 76 -9 83 -29 80 -16 -3 -18 -1 -7 9 6 7 12 18 12 24 0 5 -5 3
-10 -5 -6 -9 -10 -10 -10 -3 0 6 5 15 10 18 21 13 -1 20 -69 23 -60 3 -71 1
-71 -13z m474 -11 c3 -8 2 -12 -4 -9 -6 3 -10 10 -10 16 0 14 7 11 14 -7z
m-379 -12 c-3 -3 -11 0 -18 7 -9 10 -8 11 6 5 10 -3 15 -9 12 -12z m22 -17 c0
-8 -4 -12 -9 -9 -5 3 -6 10 -3 15 9 13 12 11 12 -6z m347 7 c3 -5 -1 -9 -9 -9
-8 0 -12 4 -9 9 3 4 7 8 9 8 2 0 6 -4 9 -8z m-364 -26 c0 -2 -7 -7 -16 -10 -8
-3 -12 -2 -9 4 6 10 25 14 25 6z m370 0 c0 -2 -7 -7 -16 -10 -8 -3 -12 -2 -9
4 6 10 25 14 25 6z m-315 -16 c-3 -5 -13 -10 -21 -10 -8 0 -14 5 -14 10 0 6 9
10 21 10 11 0 17 -4 14 -10z m325 -11 c0 -6 7 -9 15 -6 8 4 17 1 21 -5 4 -7 3
-8 -4 -4 -11 6 -16 -6 -13 -26 0 -5 -4 -8 -9 -8 -6 0 -10 6 -8 13 2 7 -1 13
-7 14 -5 0 -9 -2 -8 -6 1 -4 -4 -8 -11 -8 -7 0 -13 6 -13 13 0 7 5 12 11 11 6
-1 10 4 9 11 -2 6 2 12 7 12 6 0 10 -5 10 -11z m-414 -14 c-1 -8 -5 -17 -8
-21 -5 -4 -4 16 1 34 3 9 9 -1 7 -13z m439 -55 c-3 -5 -12 -10 -18 -10 -7 0
-6 4 3 10 19 12 23 12 15 0z m33 -15 c-3 -3 -9 2 -12 12 -6 14 -5 15 5 6 7 -7
10 -15 7 -18z m-452 -10 c0 -19 -3 -22 -13 -13 -10 8 -10 14 -2 24 15 18 15
18 15 -11z m434 -9 c0 -2 -8 -10 -17 -17 -16 -13 -17 -12 -4 4 13 16 21 21 21
13z m-320 -36 c8 -5 11 -10 5 -10 -5 0 -17 5 -25 10 -8 5 -10 10 -5 10 6 0 17
-5 25 -10z m-76 -32 c-3 -4 2 -8 10 -8 9 0 16 -7 16 -16 0 -9 5 -12 12 -8 6 4
8 3 4 -4 -3 -5 0 -13 6 -16 7 -3 3 -3 -9 0 -16 4 -22 1 -20 -8 2 -7 2 -9 -1
-5 -2 4 -11 2 -20 -5 -10 -7 -14 -8 -10 -4 4 5 2 16 -5 25 -10 14 -10 14 4 4
17 -14 29 -8 29 15 0 9 -7 13 -18 10 -12 -3 -18 1 -18 12 0 9 6 17 13 17 7 0
10 -4 7 -9z m85 -35 c-3 -19 2 -27 10 -15 7 11 9 11 14 0 3 -9 -3 -14 -18 -14
-20 0 -24 8 -16 34 2 6 11 1 10 -5z m265 -69 c3 -8 2 -12 -4 -9 -6 3 -10 10
-10 16 0 14 7 11 14 -7z m-49 -3 c-3 -5 -1 -12 5 -16 5 -3 10 -1 10 6 0 7 2
10 5 7 3 -3 3 -12 0 -19 -8 -20 -41 -21 -57 -1 -7 9 -8 13 -2 9 7 -4 17 0 24
8 14 17 25 20 15 6z m-266 -23 c-7 -13 -10 -24 -8 -25 2 -1 1 -4 -3 -8 -3 -4
-5 1 -3 12 2 10 4 24 4 31 1 6 6 12 11 12 7 0 6 -8 -1 -22z m8 -53 c0 -8 -4
-12 -9 -9 -5 3 -6 10 -3 15 9 13 12 11 12 -6z m231 -24 c14 11 15 11 5 -1 -7
-7 -21 -14 -31 -15 -14 -1 -18 4 -14 18 4 17 6 18 14 3 8 -14 13 -15 26 -5z
m47 -1 c3 -6 -1 -7 -9 -4 -18 7 -21 14 -7 14 6 0 13 -4 16 -10z m-180 -29 c3
-5 2 -12 -3 -15 -5 -3 -9 1 -9 9 0 17 3 19 12 6z m-33 -109 c-7 -2 -10 -8 -7
-12 3 -5 0 -12 -6 -16 -7 -4 -9 -3 -5 4 3 6 2 13 -4 17 -16 10 -1 25 17 18 11
-4 13 -8 5 -11z"/>
<path d="M1515 730 c-3 -5 -1 -10 4 -10 6 0 11 5 11 10 0 6 -2 10 -4 10 -3 0
-8 -4 -11 -10z"/>
<path d="M3052 1113 c8 -10 58 -81 111 -159 l96 -140 -171 -180 -170 -179 99
-3 98 -3 114 116 c95 98 116 115 127 103 7 -7 44 -58 82 -113 l68 -100 87 -3
c48 -1 87 -1 87 2 0 2 -52 80 -115 172 l-115 168 33 35 c18 20 89 95 157 166
l124 130 -99 3 -100 3 -99 -101 c-54 -55 -102 -100 -106 -100 -3 0 -37 45 -74
100 l-68 100 -90 0 c-86 0 -90 -1 -76 -17z"/>
<path d="M3842 1100 c0 -19 2 -27 5 -17 2 9 2 25 0 35 -3 9 -5 1 -5 -18z"/>
<path d="M3880 1098 c0 -36 4 -35 14 5 4 16 2 27 -4 27 -5 0 -10 -14 -10 -32z"/>
<path d="M3925 1120 c-3 -5 -1 -10 4 -10 6 0 11 5 11 10 0 6 -2 10 -4 10 -3 0
-8 -4 -11 -10z"/>
<path d="M535 1096 c-18 -13 -15 -17 17 -29 14 -5 17 -2 15 13 -4 28 -11 32
-32 16z m20 -6 c-3 -5 -12 -10 -18 -10 -7 0 -6 4 3 10 19 12 23 12 15 0z"/>
<path d="M1870 1069 c0 -5 5 -7 10 -4 6 3 10 8 10 11 0 2 -4 4 -10 4 -5 0 -10
-5 -10 -11z"/>
<path d="M2200 1066 c0 -8 4 -17 9 -20 5 -4 7 3 4 14 -6 23 -13 26 -13 6z"/>
<path d="M2255 1050 c3 -5 11 -10 16 -10 6 0 7 5 4 10 -3 6 -11 10 -16 10 -6
0 -7 -4 -4 -10z"/>
<path d="M2269 997 c0 -1 -2 -10 -4 -20 -3 -15 -1 -16 13 -5 9 7 18 13 20 14
2 1 -4 4 -13 7 -8 4 -15 5 -16 4z"/>
<path d="M135 231 c-7 -7 6 -21 20 -21 7 0 15 6 18 13 4 12 -28 19 -38 8z"/>
</g>
</svg>
